<svg xmlns="http://www.w3.org/2000/svg" viewBox="0 0 96 96" role="img" aria-label="Luna Mia">
  <rect width="96" height="96" rx="28" fill="#171411"/>
  <path d="M61.5 18.5c-13.2 2.7-23.1 14.4-23.1 28.4 0 14.8 11.1 27 25.5 28.8-4.7 2.9-10.2 4.6-16.1 4.6-17.2 0-31.1-13.9-31.1-31.1S30.6 18.1 47.8 18.1c4.9 0 9.5 1.1 13.7 3.1z" fill="#F3E7D2"/>
  <path d="M61.7 62.3c4.7-3.4 7.7-8.9 7.7-15.1 0-5.8-2.7-11-6.8-14.4 9.8 1 17.5 9.2 17.5 19.3 0 10.7-8.7 19.4-19.4 19.4-3.8 0-7.3-1.1-10.3-3 4.4-.4 8.4-2.6 11.3-6.2z" fill="#B99567"/>
  <path d="M33 58.8h26.8" stroke="#B99567" stroke-width="3.5" stroke-linecap="round"/>
</svg>
